<svg width="22" height="25" viewBox="0 0 22 25" fill="none" xmlns="http://www.w3.org/2000/svg">
<path d="M7.59979 4.43729C7.58982 4.3573 7.57512 4.29224 7.5557 4.23731C7.53628 4.18239 7.50636 4.13706 7.47225 4.09226C7.3489 3.93228 7.16204 3.85229 6.91587 3.85229H6.34952V6.36931H6.91587C7.16204 6.36931 7.34942 6.29412 7.47225 6.13414C7.50689 6.08934 7.53628 6.03922 7.5557 5.98429C7.57565 5.93416 7.59034 5.8643 7.59979 5.78911C7.60976 5.70912 7.61974 5.619 7.61974 5.50382C7.62446 5.39343 7.62446 5.26331 7.62446 5.11347C7.62446 4.96362 7.62446 4.82817 7.61974 4.71832C7.61974 4.60847 7.60976 4.51301 7.59979 4.43835V4.43729Z" fill="#676A73"/>
<path d="M3.5997 3.85181H2.90527V4.91247H3.5997C3.76713 4.91247 3.90518 4.86234 4.00386 4.76742C4.09729 4.6725 4.14662 4.54238 4.14662 4.3872C4.14662 4.22722 4.09729 4.09711 4.00386 4.00165C3.90518 3.9014 3.76766 3.85181 3.5997 3.85181Z" fill="#676A73"/>
<path d="M13.4019 4.97057C13.4019 3.28812 12.0597 1.92456 10.4037 1.92456H2.99814C1.34213 1.92456 0 3.28812 0 4.97057C0 6.65302 1.34213 8.01658 2.99814 8.01658H10.4032C12.0592 8.01658 13.4013 6.65302 13.4013 4.97057H13.4019ZM4.80741 4.84739C4.7481 4.99723 4.66937 5.12255 4.56124 5.23294C4.45259 5.34332 4.3198 5.43291 4.16706 5.49317C4.00959 5.55823 3.83218 5.58809 3.63535 5.58809H2.90628V7.04444H2.16252V3.18093H3.63535C3.83218 3.18093 4.00959 3.2108 4.16706 3.27585C4.3198 3.33611 4.45259 3.42623 4.56124 3.53609C4.66937 3.64594 4.74863 3.77606 4.80741 3.92164C4.86148 4.06669 4.89087 4.22187 4.89087 4.38718C4.89087 4.54716 4.86148 4.70234 4.80741 4.84739ZM8.36351 5.5481C8.35878 5.68301 8.35353 5.80353 8.33884 5.91338C8.32414 6.02324 8.29947 6.12349 8.26483 6.21841C8.23019 6.30853 8.18609 6.39865 8.12678 6.47864C7.99399 6.67382 7.83127 6.81887 7.64914 6.90899C7.46175 6.99911 7.24025 7.04391 6.97939 7.04391H5.60996V3.18093H6.97939C7.24025 3.18093 7.46228 3.22573 7.64914 3.31585C7.83127 3.40597 7.99399 3.55102 8.12678 3.74619C8.18609 3.82618 8.23019 3.91631 8.26483 4.00643C8.29947 4.10135 8.32414 4.2016 8.33884 4.31145C8.35353 4.42184 8.35878 4.54183 8.36351 4.67674C8.36823 4.80686 8.36823 4.95191 8.36823 5.11242C8.36823 5.2724 8.36823 5.41745 8.36351 5.54756V5.5481ZM9.77702 7.04444H9.03326V3.18093H11.5406V3.85125H9.77702V4.80206H11.2792V5.47771H9.77702V7.04391V7.04444Z" fill="#676A73"/>
<path d="M21.9996 5.10228C21.9996 2.28931 19.7468 0 16.9775 0H13.9641C13.4093 0 12.9595 0.456475 12.9595 1.02067C12.9595 1.58486 13.4093 2.04134 13.9641 2.04134H16.9775C18.6393 2.04134 19.9908 3.4145 19.9908 5.10281V19.8988C19.9908 21.5871 18.6393 22.9603 16.9775 22.9603H8.94254C7.28076 22.9603 5.92918 21.5871 5.92918 19.8988V11.2252C5.92918 10.661 5.47935 10.2046 4.92455 10.2046C4.36975 10.2046 3.91992 10.661 3.91992 11.2252V19.8988C3.91992 22.7118 6.17272 25.0011 8.94201 25.0011H16.9769C19.7457 25.0011 21.999 22.7123 21.999 19.8988V5.10228H21.9996Z" fill="#676A73"/>
<path d="M14.0716 9.71985C14.0668 9.56787 14.0448 9.42549 14.0065 9.2927C13.9487 9.0794 13.8516 8.89009 13.7167 8.73544C13.7167 8.73544 13.7152 8.73384 13.712 8.73064C13.4968 8.48534 13.1976 8.34509 12.8927 8.34509C12.5877 8.34509 12.3032 8.48001 12.0975 8.72798C11.8943 8.97328 11.7857 9.30977 11.781 9.70492C11.7736 10.3086 11.8219 10.8808 11.9237 11.4087C11.9332 11.4503 11.9405 11.4924 11.9505 11.534C12.0518 12.0129 12.2019 12.4667 12.3951 12.889C12.1678 13.3578 11.9384 13.7631 11.7789 14.0377C11.6581 14.2462 11.5253 14.4648 11.3873 14.6835C10.7664 14.7965 10.2394 14.9341 9.78063 15.1058C9.15969 15.3341 8.6621 15.6284 8.30413 15.9798C8.07213 16.2054 7.91519 16.4465 7.83751 16.6966C7.7551 16.9541 7.76035 17.2122 7.85221 17.4426C7.93671 17.6559 8.08893 17.8356 8.29206 17.9583C8.34035 17.9876 8.39126 18.0121 8.44428 18.0345C8.59912 18.0985 8.76813 18.1326 8.94449 18.1326C9.35285 18.1326 9.77328 17.9535 10.1286 17.6319C10.7905 17.0304 11.4744 16.0636 11.8781 15.4519C12.2093 15.4002 12.5693 15.3559 12.9751 15.3122C13.4538 15.2631 13.8763 15.2338 14.2605 15.2189C14.3791 15.3271 14.4925 15.4301 14.6012 15.5282C15.2053 16.0758 15.6641 16.471 16.0798 16.7483C16.0798 16.751 16.0824 16.7509 16.0845 16.7509C16.2488 16.8613 16.4057 16.952 16.5627 17.0261C16.739 17.1098 16.918 17.1536 17.1017 17.1536C17.3337 17.1536 17.551 17.0826 17.7321 16.9525C17.9158 16.8176 18.0486 16.6235 18.109 16.4049C18.1793 16.1425 18.1378 15.8503 17.993 15.5874C17.9132 15.445 17.8045 15.3101 17.6691 15.1874C17.5578 15.0845 17.4277 14.9885 17.2802 14.9C16.686 14.5443 15.8378 14.3721 14.6852 14.3721H14.5692C14.5062 14.3134 14.4411 14.2542 14.3734 14.1929C13.9361 13.7929 13.5881 13.3583 13.3173 12.8746C13.849 11.6839 14.1025 10.6237 14.071 9.72038L14.0716 9.71985ZM10.232 16.2987C10 16.5835 9.77801 16.824 9.57698 17.0059C9.40534 17.1632 9.21691 17.2613 9.03792 17.2858C9.00643 17.2906 8.97494 17.2933 8.94344 17.2933C8.7865 17.2933 8.65843 17.2293 8.61959 17.1312C8.57865 17.0282 8.62431 16.8293 8.87573 16.5835C9.25995 16.2102 9.86146 15.9159 10.6997 15.6924C10.5401 15.9132 10.3832 16.1148 10.231 16.2987H10.232ZM16.8624 15.6236C16.9999 15.7047 17.1038 15.7879 17.1742 15.8689C17.2902 15.9942 17.3311 16.1073 17.3096 16.183C17.2902 16.2593 17.2056 16.3105 17.1017 16.3105C17.0414 16.3105 16.9784 16.2955 16.9133 16.2641C16.802 16.2102 16.686 16.1436 16.5627 16.063C16.5579 16.063 16.5532 16.0582 16.548 16.0534C16.2603 15.8668 15.9391 15.6044 15.5428 15.253C16.106 15.3117 16.548 15.437 16.8618 15.6236H16.8624ZM12.6071 9.71505C12.6119 9.39829 12.7258 9.18499 12.8921 9.18499C13.0176 9.18499 13.1509 9.30017 13.2113 9.52148C13.2281 9.5876 13.2401 9.66386 13.2428 9.74971C13.2475 9.85263 13.2454 9.96089 13.2401 10.0713C13.2254 10.3832 13.1724 10.7144 13.0806 11.0706C13.0249 11.2988 12.9525 11.5372 12.8633 11.7852C12.762 11.4364 12.689 11.0658 12.6507 10.6707C12.6171 10.3662 12.6024 10.0494 12.6071 9.71558V9.71505ZM13.4023 14.3961L13.3635 14.3987L13.3971 14.4307C13.2979 14.4382 13.194 14.4478 13.09 14.4579C13.0249 14.4654 12.9572 14.4702 12.8895 14.4776C12.7494 14.4926 12.6119 14.507 12.4812 14.5219L12.498 14.4947L12.4712 14.4995C12.4759 14.4872 12.4833 14.475 12.4906 14.4654C12.5919 14.291 12.72 14.0676 12.858 13.81L12.8701 13.8372L12.9016 13.7711C13.0029 13.9182 13.1142 14.0633 13.2302 14.203C13.2858 14.2691 13.3435 14.3331 13.4018 14.3971L13.4023 14.3961Z" fill="#676A73"/>
</svg>
