<svg width="24" height="22" viewBox="0 0 24 22" fill="none" xmlns="http://www.w3.org/2000/svg">
<path d="M8.18848 1.57422C10.2796 -0.507773 13.6504 -0.524833 15.7617 1.52441L15.8115 1.57324V1.57422L19.7129 5.46191V2.4248C19.7129 1.85673 20.1741 1.39648 20.7422 1.39648C21.3101 1.39667 21.7705 1.85685 21.7705 2.4248V7.51172L23.6982 9.43359C24.1006 9.83474 24.1013 10.4863 23.7002 10.8887C23.2992 11.2907 22.6483 11.2915 22.2461 10.8906L21.7656 10.4121L21.7607 15.8848V15.8867C21.7523 18.8577 19.3391 21.2606 16.3682 21.2568H7.63574C4.66287 21.2605 2.24887 18.8549 2.24316 15.8818V10.4033L1.75488 10.8906C1.35258 11.2918 0.700874 11.2909 0.299805 10.8887C-0.101265 10.4863 -0.0995648 9.83473 0.302734 9.43359L2.5459 7.19727L8.18848 1.57422ZM13.7148 17.7871C13.7147 16.8404 12.9468 16.0732 12 16.0732C11.0533 16.0733 10.2863 16.8405 10.2861 17.7871V19.2002H13.7148V17.7871ZM15.7715 19.2002H16.3701C18.2064 19.2029 19.6979 17.7173 19.7031 15.8809L19.7109 8.36523L14.3604 3.03125L14.3291 3.00098C13.0217 1.73211 10.9344 1.74217 9.63965 3.03125L4.30078 8.35254V15.9209C4.32729 17.7388 5.81121 19.203 7.63477 19.2002H8.22852V17.7871C8.22868 15.7044 9.91721 14.0157 12 14.0156C14.0829 14.0156 15.7713 15.7043 15.7715 17.7871V19.2002Z" fill="#A8B95E"/>
</svg>
