<svg width="17" height="45" viewBox="0 0 17 45" fill="none" xmlns="http://www.w3.org/2000/svg">
<path d="M7.55566 14C11.7285 14 15.1113 17.4624 15.1113 21.7334C15.1113 23.4179 14.5827 24.975 13.6895 26.2451L16.7236 29.3496C17.0923 29.7271 17.0923 30.3393 16.7236 30.7168C16.3549 31.0943 15.7565 31.0942 15.3877 30.7168L12.4033 27.6631C11.0911 28.7882 9.40133 29.4668 7.55566 29.4668C3.38281 29.4668 0 26.0045 0 21.7334C7.09992e-05 17.4623 3.38285 14 7.55566 14ZM7.55566 15.9336C4.42607 15.9336 1.88874 18.5301 1.88867 21.7334C1.88867 24.9367 4.42602 27.5332 7.55566 27.5332C10.6853 27.5332 13.2227 24.9367 13.2227 21.7334C13.2226 18.5301 10.6852 15.9336 7.55566 15.9336Z" fill="#2A2C31"/>
</svg>
